<?xml version="1.0" encoding="utf-8"?>
<!-- Generator: Adobe Illustrator 24.0.0, SVG Export Plug-In . SVG Version: 6.00 Build 0)  -->
<svg version="1.1" id="Calque_1" xmlns="http://www.w3.org/2000/svg" xmlns:xlink="http://www.w3.org/1999/xlink" x="0px" y="0px"
	 viewBox="0 0 300 150" style="enable-background:new 0 0 300 150;" xml:space="preserve">
<style type="text/css">
	.st0{fill:#95C11F;}
	.st1{fill:#006731;}
	.st2{fill:#006730;}
</style>
<g>
	<path class="st0" d="M183.6,28.3c2.5-2.1,4.8-4.2,7.2-6.3s4.9-4.1,7.6-6c5.3-3.7,11.1-6.9,17.6-8.5c-5.6,3.2-11,6.6-16.2,10.4
		l-7.8,5.6C189.3,25.2,186.6,26.9,183.6,28.3c2.4-0.5,4.8-0.9,7.2-1.3c12.8-2.2,25.9-3.8,39-4.9c-12.9,2-25.8,4-38.4,6.6
		c-12.7,2.5-25.2,5.4-37.4,9.1c-3.4,1-6.7,2-10.1,3.1c3.9-0.2,7,0.5,11.3,0.8c7.2,0.5,14.6,2.5,21.9,4.2c7.3,1.8,14.6,4.1,21.7,7.1
		c7.2,3,14.2,6.5,20.9,11c-3.5-1.8-7-3.6-10.5-5.1c-3.5-1.6-7.1-3-10.6-4.4c-7.1-2.6-14.3-4.8-21.5-6.6s-14.4-3.1-21.5-3.9
		c-3.6-0.4-7.1-0.7-10.7-0.8c-2.6-0.1-5.2-0.1-7.8-0.1c-6.4,2.2-12.7,4.6-19,7.1c-5.2,2.1-10.3,4.2-15.4,6.5c3.2-1,6.5-1.8,9.8-2.6
		c6.7-1.4,13.5-2.4,20.7-2.2c3.6,0.1,7.2,0.4,10.8,1c3.6,0.7,7.3,1.5,10.8,2.9c-7.2-1.8-14.3-2.4-21.3-2.2
		c-6.9,0.3-13.6,1.2-20.2,2.7c-6.6,1.4-13,3.3-19.3,5.2c-2.5,0.7-4.9,1.5-7.3,2.3c-1.1,0.5-8.6,2.7-11.8,3.6c3-1.4,6.1-2.6,9.1-3.9
		c3.1-1.2,6.2-2.4,9.3-3.6c0.4-0.2,0.8-0.3,1.3-0.4c1.9-1,3.7-1.9,5.6-2.8c5.7-2.7,11.4-5.4,17.2-7.9c7.5-3.3,15.3-6.2,23.1-8.9
		c0.8-1.4,1.7-2.8,2.5-4.3l3.5-5.4c2.3-3.6,4.8-7,7.4-10.4c2.6-3.3,5.3-6.6,8.2-9.6s5.9-6,9.2-8.6l-8,9.8l-7.8,9.9l-7.8,10l-3.9,5
		c-0.9,1.1-1.9,2.2-2.8,3.4c4-1.4,8.1-2.7,12.2-4C163.1,32.7,173.3,30.3,183.6,28.3"/>
	<path class="st0" d="M20.6,146.2c50.5-38.4,127.8-35.9,163.5-31.1C184.1,115.2,101.8,113.6,20.6,146.2"/>
	<path class="st1" d="M14.7,126.8c45.4-18.1,94.3-22.2,132.9-21.2c61.6,1.6,106.2,18.2,137.6,28c1.4,0.4,1.7,1.4,0.6,1.2
		c0,0-75.6-20.5-139.6-22.1c-38.6-0.6-83.6,4.4-130.8,15C13.8,128.2,16.4,126.4,14.7,126.8"/>
	<g>
		<path class="st1" d="M150.7,71.3c-0.6,0-1.1,0.2-1.5,0.6s-0.6,0.9-0.6,1.5s0.2,1.1,0.6,1.5c0.4,0.4,0.9,0.6,1.5,0.6
			s1.1-0.2,1.5-0.6s0.6-0.9,0.6-1.5s-0.2-1.1-0.6-1.5C151.8,71.5,151.3,71.3,150.7,71.3"/>
		<g>
			<path class="st1" d="M66.3,92.3c-2.6,2.3-5.7,3.4-9.1,3.4c-3.8,0-7.1-1.4-9.7-4c-2.7-2.7-4-5.9-4-9.7c0-3.8,1.4-7,4-9.7
				c2.7-2.7,6-4,9.7-4c3.5,0,6.5,1.2,9.1,3.4l0.2,0.2l1.9-1.7L68.1,70c-3.1-2.8-6.8-4.2-11-4.2c-4.5,0-8.4,1.6-11.5,4.8
				c-3.2,3.2-4.8,7-4.8,11.5s1.6,8.4,4.8,11.5c3.2,3.2,7,4.8,11.5,4.8c4.2,0,7.9-1.4,11-4.2l0.3-0.3l-1.9-1.7L66.3,92.3z"/>
			<path class="st1" d="M77,77.9c-1.8,0.7-3.1,1.8-4,3.1v-3h-2.5v19.8H73V86.6c0-1.3,0.6-2.7,1.7-4s2.3-2.1,3.5-2.3l0.5-0.1
				l-1.4-2.4L77,77.9z"/>
			<path class="st1" d="M90.4,76.4c-3,0-5.6,1.1-7.8,3.2c-2.2,2.1-3.2,4.8-3.2,7.8s1.1,5.6,3.2,7.8c2.2,2.1,4.8,3.2,7.8,3.2
				c3.1,0,5.7-1.1,7.8-3.2c2.1-2.1,3.2-4.8,3.2-7.8s-1.1-5.7-3.2-7.8C96.1,77.4,93.5,76.4,90.4,76.4 M90.4,95.8
				c-2.3,0-4.3-0.8-6-2.5c-1.6-1.6-2.5-3.6-2.5-6c0-2.3,0.8-4.3,2.5-6c1.6-1.6,3.7-2.5,6-2.5s4.3,0.8,6,2.5c1.6,1.7,2.5,3.7,2.5,6
				s-0.8,4.3-2.5,6C94.8,95,92.7,95.8,90.4,95.8"/>
			<path class="st1" d="M118,90.2c0,1.5-0.5,2.8-1.6,3.9s-2.4,1.6-3.9,1.6c-1.6,0-3-0.5-4.1-1.6s-1.6-2.3-1.6-3.9V78.1h-2.5v12.3
				c0,2.2,0.8,4.1,2.3,5.6s3.5,2.2,6,2.2c2.3,0,4.3-0.7,5.7-2.2c1.5-1.5,2.2-3.4,2.3-5.6V78.1H118V90.2z"/>
			<path class="st1" d="M129.6,85.2c-1-0.6-1.7-1.1-2-1.4c-0.5-0.5-0.7-1.1-0.7-1.7c0-0.7,0.2-1.2,0.7-1.7s1.1-0.7,1.7-0.7
				c0.7,0,1.2,0.2,1.7,0.6c0.4,0.4,0.7,1.1,0.8,2l0.1,0.5l2.2-0.9v-0.3c0-1.1-0.4-2.2-1.3-3c-0.9-0.9-2-1.4-3.4-1.4
				s-2.5,0.5-3.5,1.5s-1.4,2.1-1.4,3.5s0.5,2.5,1.4,3.5c0.6,0.6,1.6,1.3,3.1,2.1c1.2,0.8,2.1,1.4,2.4,1.8c0.7,0.7,1.1,1.5,1.1,2.5
				s-0.3,1.8-1.1,2.5c-0.7,0.7-1.5,1-2.5,1s-1.8-0.3-2.5-1s-1-1.5-1-2.6v-0.5l-2.5,0.6v0.3c0,1.4,0.6,2.7,1.8,3.9
				c1.2,1.2,2.6,1.8,4.3,1.8c1.7,0,3.1-0.6,4.3-1.8c1.2-1.2,1.8-2.6,1.8-4.3c0-1.6-0.6-3.1-1.8-4.2
				C132.5,86.9,131.3,86.1,129.6,85.2"/>
			<polygon class="st1" points="143,70 140.5,70 140.5,78.1 136.6,78.1 136.6,80.6 140.5,80.6 140.5,97.9 143,97.9 143,80.6 
				146.9,80.6 146.9,78.1 143,78.1 			"/>
			<rect x="149.4" y="78.1" class="st1" width="2.5" height="19.8"/>
			<rect x="156.2" y="66.1" class="st1" width="2.5" height="31.8"/>
			<rect x="162.8" y="66.1" class="st1" width="2.5" height="31.8"/>
			<path class="st1" d="M188,80.1c-0.2-0.2-0.3-0.3-0.5-0.5c-2.1-2.1-4.8-3.2-7.8-3.2s-5.6,1.1-7.8,3.2s-3.2,4.8-3.2,7.8
				s1.1,5.6,3.2,7.8c2.2,2.1,4.8,3.2,7.8,3.2c3.1,0,5.7-1.1,7.8-3.3c0.2-0.2,0.3-0.3,0.5-0.5v3.2h2.5V78.1H188V80.1z M179.7,95.8
				c-2.3,0-4.3-0.8-6-2.5c-1.6-1.6-2.5-3.6-2.5-6c0-2.3,0.8-4.3,2.5-6c1.6-1.6,3.7-2.5,6-2.5s4.3,0.8,6,2.5c1.2,1.2,2,2.7,2.3,4.3
				V89c-0.3,1.6-1.1,3-2.3,4.3C184,95,182,95.8,179.7,95.8"/>
			<path class="st1" d="M201.6,76.9c-1.9,0-3.7,0.6-5.2,1.9V78h-2.5v19.8h2.5v-15c0.3-0.6,0.7-1.2,1.3-1.8c1.1-1.1,2.4-1.6,3.9-1.6
				s2.8,0.5,3.9,1.6c1.1,1.1,1.6,2.4,1.6,3.9v13h2.5V84.7c0-2.2-0.8-4.1-2.3-5.6C205.9,77.7,203.9,76.9,201.6,76.9"/>
			<path class="st1" d="M223.3,78.9c2.3,0,4.3,0.8,6,2.5c0.2,0.2,0.4,0.5,0.6,0.7l0.2,0.2l2.6-0.9l-0.3-0.4
				c-0.3-0.5-0.7-0.9-1.2-1.4c-2.1-2.1-4.8-3.2-7.8-3.2s-5.6,1.1-7.8,3.2s-3.2,4.8-3.2,7.8s1.1,5.7,3.2,7.8c2.2,2.1,4.8,3.2,7.8,3.2
				c3.1,0,5.7-1.1,7.8-3.2c0.4-0.4,0.8-0.9,1.2-1.4l0.3-0.4l-2.6-0.9l-0.2,0.2c-0.2,0.2-0.4,0.4-0.6,0.7c-1.7,1.6-3.7,2.5-6,2.5
				s-4.3-0.8-6-2.5c-1.6-1.6-2.5-3.6-2.5-6c0-2.3,0.8-4.3,2.5-6C219,79.8,221,78.9,223.3,78.9"/>
			<path class="st1" d="M255.7,86.8v-0.4c0-2.6-1-4.9-2.9-6.8c-2.2-2.1-4.8-3.2-7.8-3.2s-5.7,1.1-7.8,3.2c-2.2,2.1-3.3,4.8-3.3,7.8
				s1.1,5.6,3.3,7.8c2.2,2.1,4.8,3.2,7.8,3.2c3.1,0,5.7-1.1,7.8-3.2c0.7-0.7,1.2-1.3,1.4-1.7l0.2-0.4l-2.5-0.9l-0.2,0.2
				c-0.3,0.3-0.5,0.6-0.8,0.9c-1.7,1.6-3.7,2.5-6,2.5s-4.3-0.8-6-2.5c-1.6-1.6-2.5-3.6-2.5-6c0-0.2,0-0.4,0-0.6L255.7,86.8
				L255.7,86.8z M245,78.9c2.3,0,4.3,0.8,6,2.5c0.8,0.8,1.4,1.8,1.8,2.8h-15.7c0.4-1,1.1-2,1.9-2.8C240.6,79.8,242.7,78.9,245,78.9"
				/>
		</g>
	</g>
</g>
<g>
	<path class="st2" d="M91.5,133.7c0.2,0.1,0.2,0.1,0.5,0.1c0.3-0.1,1.4-0.4,1.8-0.5c0.3-0.1,0.4-0.4,0.5-0.5
		c0.1-0.2,0.2-0.3,0.4-0.4c0.6-0.2,1.1,0.3,1.2,0.8c0.2,0.7-0.3,1.2-0.6,1.3c-0.2,0.1-0.6,0-0.7-0.1c-0.2,0-0.3,0-0.5,0.1
		c-0.6,0.2-1.2,0.4-1.8,0.6c-0.1,0-0.2,0.1-0.2,0.3c-0.2,1.8-0.4,4.8-0.6,6.1c0,0.3,0,0.3,0.2,0.2c0.5-0.1,1.1-0.2,1.5-0.2
		c0.2,0,0.3,0.2,0,0.5c-0.4,0.5-1.2,0.9-1.8,1.1c-0.3,0.1-0.3,0.1-0.4,0.2c-0.2,0.2-0.7,0.8-1,0.9c-0.3,0.1-0.8-0.1-1-0.5
		c-0.2-0.6,0.2-1,0.6-1.3c0.1-0.1,0.2-0.2,0.3-0.4c0.1-1.2,0.2-3.9,0.3-5.8c0-0.3,0-0.3-0.1-0.3c-0.3,0-1.5,0.4-2,0.5
		c-1,0.3-1.2,0.7-1.2,1.2c0,0.3-0.2,0.4-0.4,0.1c-0.4-0.5-0.5-1.1-0.4-1.5c0.1-0.5,0.7-0.9,1.6-1.2c0.8-0.2,1.7-0.4,2.5-0.6
		c0.2,0,0.2-0.1,0.3-0.2c0-0.3,0.2-0.6,0.5-0.7C90.8,133.4,91.1,133.5,91.5,133.7z"/>
	<path class="st2" d="M100.9,133.9c0,0.3-0.1,0.8-0.2,1c-0.2,0.3-0.4,0.5-0.5,0.4c-0.2,0-0.4-0.1-0.5,0c-0.2,0.1-0.5,0.4-0.8,1.2
		c-0.7,1.4-1.2,3.5-1.3,4.2c-0.1,0.6-0.3,0.9-0.6,1c-0.3,0.1-0.6,0-0.9-0.2c-0.3-0.2-0.4-0.4-0.4-0.8c0.2-1.4-0.1-3-0.3-4
		c-0.1-0.9,0-1.2,0.3-1.6c0.2-0.3,0.5-0.6,0.8-0.7c0.4-0.1,0.8,0.2,0.9,0.6c0,0.2,0,0.4-0.1,0.7c-0.1,0.4-0.2,1.4-0.1,2
		c0,0.2,0.1,0.2,0.2-0.1c0.1-0.4,0.5-1.6,1-2.5c0.4-0.8,0.9-1.6,1.7-1.8C100.4,133.2,100.9,133.4,100.9,133.9z"/>
	<path class="st2" d="M105,132.6c0.1,0.1,0.2,0.1,0.3,0c0.1-0.2,0.3-0.2,0.5-0.2c0.6,0.2,0.6,0.4,0.6,0.6c-0.2,1.3-0.3,2.6,0,3.7
		c0.2,0.7,0.4,0.9,0.7,0.8c0.4-0.1,1.5-1.6,2.3-3.6c0.2-0.2,0.4-0.3,0.5-0.2c0.1,0.2,0.1,0.5,0,0.9c-0.5,1.9-1.9,4.2-3.1,4.5
		c-0.7,0.2-1.4-0.3-1.7-1.1c-0.1-0.3-0.1-0.5-0.2-0.7c-0.1-0.2-0.1-0.2-0.2,0c-0.2,0.3-1,1.5-1.4,2c-0.4,0.5-0.8,0.8-1.2,0.9
		c-0.2,0.1-1.1-0.2-1.3-0.9c-0.1-0.4-0.1-1,0.2-2.4c0.3-1.2,0.9-2.3,1.5-3.2c0.9-1.2,1.7-1.5,1.9-1.5
		C104.5,132.3,104.8,132.5,105,132.6z M103.1,135.1c-0.5,0.9-0.8,2.2-0.8,2.7c0,0.3,0.1,0.5,0.3,0.5c0.2,0,0.4-0.3,0.6-0.6
		c0.3-0.4,0.5-0.8,0.9-1.6c0.2-0.4,0.4-1,0.4-1.1c0.1-0.2,0.1-0.5,0-0.7c-0.1-0.2-0.3-0.4-0.6-0.3
		C103.7,134,103.5,134.3,103.1,135.1z"/>
	<path class="st2" d="M109,138c-0.3-0.3-0.3-0.7-0.3-1.2c0-0.5,0.1-1.6,0.2-2c0-0.3,0-0.4-0.1-0.6c-0.1-0.2-0.2-0.3-0.1-0.6
		c0.1-0.9,1.1-2.4,1.7-2.6c0.1,0,0.2,0,0.4,0c0.3,0.1,0.6,0.5,0.5,0.9c-0.4,1.2-0.6,2.4-0.8,4c-0.1,0.6,0,0.9,0.4,0.8
		c0.6-0.1,2.2-2.3,3-3.8c0.2-0.3,0.4-0.3,0.5-0.2c0.1,0.2,0.1,0.5,0,0.9c-0.5,1.4-2,3.5-3,4.2c-0.4,0.3-0.8,0.5-1.1,0.5
		C109.9,138.7,109.4,138.6,109,138z M111.4,127.5c0,0.7,0.1,1.2,0.2,1.7c0.1,0.4-0.2,0.5-0.6,0.4c-0.5-0.1-0.9-0.4-1-0.7
		c-0.1-0.2-0.2-0.5-0.3-1c-0.1-0.6,0.1-0.9,0.5-1C110.8,126.8,111.4,127,111.4,127.5z"/>
	<path class="st2" d="M117.4,134.7c0.4-0.4,0.6,0.1,0.3,0.6c-0.3,0.4-1,1.3-2.4,2.1c-0.3,0.2-0.6,0.3-0.8,0.3
		c-0.6,0.1-1.3-0.2-1.5-0.9c0-0.2,0-0.5,0-0.9c0.1-0.6,0.4-2.6,0.4-2.9c0-0.1,0-0.2-0.2-0.2c-0.2,0-0.4,0.1-0.7,0.2
		c-0.2,0.1-0.4,0-0.5-0.1c-0.2-0.1-0.2-0.4-0.1-0.6c0.1-0.3,0.2-0.4,0.5-0.5c0.2-0.1,0.5-0.2,0.9-0.4c0.2-0.1,0.3-0.1,0.3-0.4
		c0.1-0.2,0.3-2.1,0.5-2.5c0.1-0.4,0.6-0.8,0.9-0.9c0.2,0,0.3,0,0.5,0.1c0.4,0.2,0.4,0.6,0.3,1c-0.3,0.9-0.4,1.8-0.5,1.9
		c0,0.2,0.1,0.1,0.3,0.1c0.9-0.2,2.3-0.5,2.8-0.6c0.5-0.1,0.3,0.4,0.1,0.6c-0.3,0.2-1.4,0.8-3.1,1.3c-0.2,0.1-0.3,0.2-0.4,0.4
		c-0.2,0.7-0.3,1.9-0.3,2.5c0,0.6,0.2,1,0.7,0.9C116.2,135.8,117,135.1,117.4,134.7z"/>
	<path class="st2" d="M118.6,131.2c0.3-0.6,1.1-2,2-2.1c0.4-0.1,0.6,0.1,0.8,0.3c0.1,0.1,0.2,0.1,0.3,0.1c0.7-0.1,1.2,0.3,1.3,1
		c0.1,0.7-0.1,1.3-0.5,1.8c-0.3,0.5-0.9,1.1-2,1.3c-0.2,0-0.4,0-0.6-0.1c-0.1,0-0.2,0-0.2,0.1c-0.1,0.2-0.1,0.4,0,0.7
		c0.1,0.4,0.4,0.7,1,0.6c1.2-0.2,2.9-1.2,4.6-3.5c0.2-0.3,0.4-0.3,0.5-0.1c0.1,0.2,0.1,0.5-0.1,0.9c-1.1,1.9-3.2,4-5.5,4.4
		c-0.9,0.2-1.9-0.4-2.1-1.7C117.7,134.1,117.9,132.6,118.6,131.2z M121.4,130.8c0-0.3-0.3-0.4-0.5-0.4c-0.4,0.1-0.9,1.1-1,1.8
		c0,0.3,0,0.3,0.3,0.3C120.8,132.4,121.5,131.4,121.4,130.8z"/>
	<path class="st2" d="M133.6,130c0.1-0.2,0.3-0.2,0.4,0c0.2,0.2,0.1,0.7-0.2,1.1c-1.2,2.2-2.3,3.1-2.9,3.5c-0.5,0.4-1.1,0.6-1.3,0.6
		c-0.6,0.1-1.1-0.5-1-1.7c0-0.3,0-0.6,0.1-0.8c0-0.2-0.1-0.3-0.2-0.2c-0.3,0.4-1.4,1.8-2.5,2.7c-0.4,0.3-0.7,0.4-1,0.5
		c-0.4,0.1-0.9-0.5-1-1.1c0-0.3-0.1-0.8,0.3-2.4c0.3-1.5,0.7-2.7,0.9-3.2c0.2-0.3,0.4-0.5,0.6-0.6c0.5-0.1,1.2,0.3,1.2,0.7
		c0,0.3-0.3,1-0.4,1.2c-0.2,0.3-0.4,0.4-0.5,0.7c-0.1,0.3-0.2,0.7-0.3,1.6c-0.1,0.7,0,0.9,0.3,0.8c0.2,0,0.7-0.6,1.5-1.8
		c0.8-1.2,1.4-2.8,1.7-3.4c0.3-0.5,0.5-0.7,0.7-0.7c0.5-0.1,1.1,0.5,0.9,1c-0.1,0.2-0.1,0.4-0.3,0.8c-0.3,0.9-0.5,2.3-0.5,3.1
		c0,0.4,0.1,0.7,0.4,0.7C131.1,133.3,132.6,131.5,133.6,130z"/>
	<path class="st2" d="M138.5,127.6c0,0.3-0.2,0.7-0.4,1c-0.2,0.3-0.4,0.4-0.6,0.3c-0.1-0.1-0.3-0.1-0.5-0.1c-0.2,0-0.5,0.3-1,1.1
		c-0.9,1.3-1.7,3.3-1.9,4c-0.1,0.5-0.4,0.8-0.7,0.9c-0.3,0-0.6-0.1-0.9-0.4c-0.2-0.2-0.3-0.4-0.2-0.8c0.4-1.3,0.3-3,0.3-4
		c0-0.9,0.1-1.2,0.5-1.5c0.2-0.2,0.6-0.5,0.8-0.6c0.4,0,0.7,0.3,0.8,0.7c0,0.2-0.1,0.4-0.2,0.7c-0.2,0.4-0.4,1.3-0.4,2
		c0,0.2,0.1,0.2,0.2,0c0.2-0.3,0.8-1.6,1.4-2.3c0.5-0.7,1.1-1.4,1.9-1.5C138.1,126.8,138.5,127.1,138.5,127.6z"/>
	<path class="st2" d="M148.5,124.3c0.1,0.1,0.2,0.3,0.2,0.4c0,0.1,0,0.2,0.1,0.3c0.2,0.2,0.4,0.5,0.4,0.9c0.1,1.1-0.9,2-2.2,2.9
		c-0.1,0.1-0.1,0.2-0.1,0.2c0.2,0.3,0.6,0.9,1.1,1.4c0.1,0.1,0.2,0.1,0.3,0.1c0.8-0.6,1.2-1.1,1.3-1.4c0.1-0.3,0-0.4-0.1-0.5
		c-0.2-0.1-0.2-0.4,0-0.8c0.2-0.3,0.4-0.8,0.8-0.8c0.3,0,1.1,0.3,1.1,0.9c0,1-0.7,2-1.1,2.4c-0.1,0.2-0.7,0.6-1.2,1.1
		c-0.1,0.1-0.1,0.1,0,0.2c0.4,0.4,1.1,0.6,1.6,0.5c0.8-0.1,1.3-0.5,1.8-1.2c0.1-0.2,0.4-0.1,0.4,0.2c0,0.1,0,0.2-0.1,0.4
		c-0.3,1.2-1.6,2-2.8,2.1c-0.8,0.1-1.7-0.3-2.4-0.8c-0.1-0.1-0.2-0.1-0.4,0c-0.9,0.6-2,1.1-3,1.2c-1.2,0.1-2-0.9-2.1-2
		c0-0.4,0.1-0.8,0.3-1.2c0.5-0.8,1.4-1.4,2.1-1.9c0.1-0.1,0.1-0.1,0.1-0.2c-0.1-0.2-0.2-0.5-0.2-0.9c0-1.4,0.8-2.4,1.5-2.9
		c0.6-0.4,1.3-0.6,1.6-0.6C148.1,124,148.4,124.1,148.5,124.3z M146.5,131.7c0.1-0.1,0.1-0.2,0-0.3c-0.4-0.4-0.7-0.9-1.1-1.4
		c-0.1-0.1-0.2-0.1-0.3-0.1c-0.2,0.2-1.2,0.8-1.1,1.5c0,0.4,0.5,0.9,0.9,0.8C145.4,132.3,146.1,131.9,146.5,131.7z M146.1,127
		c0,0.2,0,0.4,0.1,0.6c0,0.1,0.1,0.1,0.2,0c0.4-0.3,1.2-0.9,1.2-1.4c0-0.3-0.2-0.8-0.6-0.7C146.6,125.5,146,126.3,146.1,127z"/>
	<path class="st2" d="M164.6,124.3c0,0.7-0.6,1.1-1,1.2c-0.3,0-0.4-0.1-0.3-0.2c0-0.2,0-0.1,0-0.3c0-0.1-0.1-0.3-0.4-0.3
		c-0.5,0-1.3,0.5-2.2,1.6c-0.7,1-1.5,2.6-1.5,3.9c0,0.9,0.5,1.2,1,1.2c1.6,0,3.8-1.5,4.1-1.7c0.4-0.3,0.6,0,0.4,0.3
		c-0.2,0.3-0.7,1-2.1,1.9c-1.1,0.7-2.4,1.1-3.2,1.1c-1.4,0-2.1-0.9-2.2-2.5c-0.1-2.2,1.4-5.4,4.3-6.8c0.8-0.4,1.2-0.5,1.7-0.5
		C164,123.2,164.6,123.5,164.6,124.3z"/>
	<path class="st2" d="M171.1,126.3c-0.1,0.3-0.3,0.7-0.5,0.9c-0.2,0.3-0.5,0.4-0.6,0.3c-0.1-0.1-0.3-0.2-0.5-0.2
		c-0.2,0-0.6,0.3-1.1,0.9c-1,1.2-2,3.2-2.3,3.8c-0.2,0.5-0.5,0.8-0.8,0.8c-0.3,0-0.6-0.2-0.9-0.5c-0.2-0.2-0.3-0.5-0.1-0.9
		c0.5-1.3,0.6-2.9,0.7-3.9c0.1-0.9,0.3-1.2,0.6-1.5c0.3-0.2,0.6-0.5,0.9-0.5c0.4,0,0.7,0.4,0.7,0.8c0,0.2-0.2,0.4-0.3,0.7
		c-0.2,0.4-0.5,1.3-0.6,1.9c0,0.2,0.1,0.2,0.2,0c0.2-0.3,0.9-1.5,1.6-2.2c0.6-0.7,1.3-1.3,2.1-1.3
		C170.7,125.5,171.1,125.9,171.1,126.3z"/>
	<path class="st2" d="M171.7,127.3c0.4-0.6,1.5-1.7,2.3-1.7c0.4,0,0.6,0.2,0.7,0.4c0.1,0.1,0.2,0.2,0.3,0.2c0.7,0.1,1.2,0.5,1.1,1.3
		c0,0.7-0.4,1.3-0.8,1.7c-0.4,0.4-1.1,0.9-2.2,0.9c-0.2,0-0.4-0.1-0.6-0.2c-0.1-0.1-0.2,0-0.3,0.1c-0.1,0.2-0.2,0.4-0.2,0.7
		c0,0.4,0.3,0.7,0.9,0.8c1.2,0,3.1-0.6,5.1-2.6c0.2-0.2,0.4-0.2,0.5-0.1c0.1,0.2,0,0.5-0.3,0.9c-1.4,1.7-3.9,3.4-6.3,3.3
		c-0.9,0-1.8-0.8-1.8-2C170.3,130,170.8,128.5,171.7,127.3z M174.6,127.4c0-0.3-0.2-0.4-0.5-0.4c-0.4,0-1.1,1-1.3,1.6
		c-0.1,0.2,0,0.3,0.2,0.3C173.6,128.9,174.6,128,174.6,127.4z M173.5,124.4c0.4-0.4,0.8-1,1.6-2c0.2-0.3,0.4-0.5,0.8-0.5
		c0.4,0,0.7,0.2,1,0.5c0.2,0.3,0.1,0.6-0.2,0.8c-1.6,1.3-2.4,1.8-2.9,1.9c-0.2,0.1-0.5,0-0.5-0.2
		C173.3,124.7,173.4,124.5,173.5,124.4z"/>
	<path class="st2" d="M182.4,126.4c0,0.1,0.1,0.1,0.3,0.1c0.2-0.1,0.3-0.2,0.5,0c0.5,0.3,0.4,0.6,0.4,0.8c-0.6,1.2-1,2.4-1,3.6
		c0,0.7,0.2,1,0.5,1c0.5,0,1.9-1.1,3.2-2.8c0.2-0.2,0.4-0.2,0.5,0c0.1,0.2,0,0.5-0.2,0.9c-1,1.7-3,3.5-4.2,3.4
		c-0.7,0-1.3-0.7-1.3-1.5c0-0.3,0-0.5,0-0.7c0-0.2-0.1-0.2-0.2-0.1c-0.3,0.3-1.4,1.2-1.9,1.6c-0.6,0.4-1,0.5-1.4,0.5
		c-0.2,0-1-0.5-1-1.2c0-0.4,0.2-1,0.9-2.2c0.6-1,1.4-2,2.3-2.7c1.1-0.9,2-1,2.2-0.9C182,125.9,182.2,126.2,182.4,126.4z
		 M179.8,128.3c-0.7,0.8-1.3,1.9-1.5,2.4c-0.1,0.3,0,0.5,0.1,0.5c0.2,0,0.5-0.2,0.8-0.4c0.4-0.3,0.6-0.6,1.3-1.3
		c0.3-0.3,0.6-0.9,0.7-1c0.1-0.2,0.2-0.5,0.1-0.7c-0.1-0.2-0.2-0.4-0.5-0.4C180.8,127.4,180.4,127.6,179.8,128.3z"/>
	<path class="st2" d="M189.4,131.3c0.5-0.3,0.5,0.3,0.2,0.6c-0.4,0.4-1.3,1-2.9,1.4c-0.3,0.1-0.6,0.1-0.9,0.1
		c-0.6,0-1.2-0.5-1.2-1.2c0-0.2,0.1-0.5,0.3-0.9c0.2-0.5,1-2.4,1.1-2.7c0.1-0.1,0.1-0.2-0.1-0.2c-0.2,0-0.4,0-0.7,0
		c-0.2,0-0.4-0.1-0.5-0.2c-0.1-0.1-0.1-0.4,0.1-0.6c0.2-0.2,0.3-0.3,0.6-0.3c0.2,0,0.6-0.1,1-0.1c0.2,0,0.3-0.1,0.4-0.3
		c0.1-0.2,0.8-1.9,1.1-2.3c0.2-0.4,0.8-0.6,1.1-0.6c0.2,0,0.3,0.1,0.5,0.3c0.3,0.3,0.3,0.7,0.1,1c-0.5,0.8-0.9,1.6-1,1.8
		c-0.1,0.2,0.1,0.1,0.2,0.2c0.9,0,2.3,0.1,2.9,0.1c0.5,0,0.2,0.5-0.1,0.6c-0.4,0.2-1.5,0.4-3.3,0.5c-0.3,0-0.3,0.1-0.5,0.3
		c-0.3,0.6-0.8,1.8-0.9,2.3c-0.1,0.6-0.1,1,0.4,1C187.9,132,188.9,131.6,189.4,131.3z"/>
	<path class="st2" d="M191.4,128.2c0.4-0.5,1.6-1.6,2.4-1.6c0.4,0,0.6,0.2,0.7,0.5c0.1,0.1,0.1,0.2,0.3,0.2c0.7,0.1,1.1,0.6,1.1,1.3
		c-0.1,0.7-0.5,1.3-0.9,1.7c-0.5,0.4-1.2,0.8-2.3,0.8c-0.2,0-0.4-0.1-0.6-0.2c-0.1-0.1-0.2-0.1-0.3,0.1c-0.1,0.2-0.2,0.4-0.2,0.6
		c0,0.4,0.3,0.8,0.8,0.8c1.2,0.1,3.1-0.4,5.3-2.3c0.2-0.2,0.4-0.2,0.5,0c0.1,0.2,0,0.5-0.3,0.9c-1.5,1.6-4.1,3.1-6.5,2.9
		c-0.9-0.1-1.8-0.9-1.6-2.1C189.8,130.8,190.4,129.4,191.4,128.2z M194.2,128.6c0-0.3-0.2-0.5-0.4-0.5c-0.4,0-1.1,0.9-1.4,1.5
		c-0.1,0.2-0.1,0.3,0.2,0.3C193.2,130,194.2,129.1,194.2,128.6z"/>
	<path class="st2" d="M206.2,130.7c0.2-0.1,0.3-0.1,0.4,0.1c0.1,0.3-0.1,0.7-0.4,1c-1.7,1.8-3,2.4-3.7,2.7c-0.6,0.2-1.2,0.3-1.5,0.3
		c-0.6-0.1-0.9-0.8-0.5-1.9c0.1-0.3,0.2-0.5,0.3-0.7s0-0.3-0.2-0.2c-0.4,0.3-1.8,1.4-3.1,2.1c-0.4,0.2-0.8,0.3-1.1,0.2
		c-0.4,0-0.8-0.7-0.7-1.3c0-0.3,0.1-0.8,0.9-2.2c0.6-1.4,1.4-2.5,1.7-2.9c0.2-0.3,0.5-0.4,0.7-0.4c0.5,0.1,1,0.6,1,1
		c0,0.3-0.5,0.9-0.7,1.1c-0.2,0.2-0.5,0.3-0.6,0.6c-0.2,0.3-0.4,0.6-0.7,1.4c-0.3,0.6-0.2,0.8,0,0.9c0.2,0,0.8-0.4,1.9-1.3
		c1.1-1,2-2.3,2.5-2.9c0.4-0.4,0.6-0.6,0.9-0.6c0.5,0.1,0.9,0.7,0.7,1.2c-0.1,0.2-0.2,0.4-0.5,0.8c-0.5,0.8-1,2.1-1.2,2.9
		c-0.1,0.4-0.1,0.7,0.2,0.7C203,133.3,204.9,131.9,206.2,130.7z"/>
	<path class="st2" d="M211.5,129.5c-0.1,0.3-0.3,0.7-0.6,0.9c-0.3,0.2-0.5,0.3-0.6,0.2c-0.1-0.1-0.3-0.2-0.5-0.2
		c-0.2,0-0.6,0.2-1.2,0.8c-1.1,1.1-2.4,2.9-2.7,3.4c-0.3,0.5-0.6,0.7-0.9,0.7c-0.3,0-0.6-0.2-0.8-0.6c-0.2-0.3-0.2-0.5,0-0.9
		c0.7-1.2,1-2.8,1.3-3.8c0.2-0.9,0.4-1.1,0.8-1.4c0.3-0.2,0.7-0.4,1-0.3c0.4,0,0.6,0.5,0.6,0.9c0,0.2-0.2,0.4-0.4,0.6
		c-0.3,0.3-0.7,1.2-0.8,1.8c-0.1,0.2,0.1,0.2,0.2,0c0.3-0.3,1.1-1.3,1.9-2c0.7-0.6,1.4-1.1,2.2-1
		C211.3,128.7,211.7,129.1,211.5,129.5z"/>
	<path class="st2" d="M219.6,130.4c0.1,0,0.1,0,0.2-0.1c1.2-1.9,2.4-3.9,2.7-4.4c0.2-0.3,0.4-0.4,0.5-0.3c0.2,0,0.4,0.1,0.7,0.5
		c0.2,0.4,0.2,0.6-0.1,1.1c-0.4,0.6-1,1.5-2,3.2c-0.8,1.5-1.6,3.4-1.8,4.4c-0.2,0.6-0.1,1,0.2,1c0.6,0.1,2.8-1.7,3.3-2.2
		c0.3-0.3,0.5-0.3,0.6-0.1c0.1,0.2-0.1,0.5-0.3,0.9c-0.8,1.2-3.1,3-4.7,2.8c-0.8-0.1-1-1-0.9-1.7c0.1-0.4,0.2-0.7,0.2-0.9
		c0-0.2,0-0.2-0.2-0.1c-0.6,0.5-1.6,1.2-2.2,1.5c-1,0.5-1.8,0.6-2.2,0.5c-0.4-0.1-0.8-0.4-0.7-1.4c0.1-0.8,0.9-2.4,2.6-3.7
		c1.2-1,2.4-1.3,3.5-1.1C219.3,130.3,219.4,130.3,219.6,130.4z M216.3,132.8c-1,1.1-1.2,1.5-1.2,1.8c0,0.2,0.1,0.4,0.2,0.4
		c0.2,0,0.8-0.1,1.5-0.7c0.8-0.6,1.9-1.8,2-2.1c0.2-0.2,0.2-0.4,0.1-0.5c0-0.1-0.2-0.2-0.3-0.3C218.2,131.3,217.2,131.8,216.3,132.8
		z"/>
	<path class="st2" d="M223.7,132.4c0.5-0.5,1.7-1.5,2.5-1.3c0.4,0.1,0.5,0.3,0.6,0.5c0,0.1,0.1,0.2,0.3,0.2c0.7,0.2,1.1,0.7,0.9,1.4
		c-0.1,0.7-0.6,1.2-1,1.6c-0.5,0.3-1.3,0.7-2.3,0.5c-0.2,0-0.4-0.2-0.6-0.3c-0.1-0.1-0.2-0.1-0.3,0.1c-0.1,0.2-0.2,0.3-0.3,0.6
		c-0.1,0.4,0.2,0.8,0.8,0.9c1.2,0.2,3.1-0.1,5.5-1.8c0.2-0.2,0.4-0.1,0.5,0c0.1,0.2-0.1,0.5-0.4,0.8c-1.6,1.5-4.4,2.7-6.7,2.3
		c-0.9-0.2-1.7-1-1.5-2.3C221.9,134.9,222.7,133.5,223.7,132.4z M226.5,133c0-0.3-0.1-0.5-0.4-0.5c-0.4-0.1-1.2,0.8-1.6,1.4
		c-0.1,0.2-0.1,0.3,0.2,0.3C225.4,134.3,226.4,133.6,226.5,133z"/>
	<path class="st2" d="M240.4,131.7c0.1,0.2,0.1,0.4-0.1,0.7c-0.2,0.3-0.8,0.8-1.4,0.6c-0.3-0.1-0.6-0.3-1.1-0.4
		c-0.8-0.1-1.4,0.2-1.6,1c-0.1,0.6-0.1,1.4,0.1,2.3c0.1,0.9,0.2,1.7,0.1,2.3c-0.1,0.6-0.5,1-1,1.3c-0.7,0.4-2,0.5-2.8,0.3
		c-0.7-0.1-1.3-0.4-1.5-0.6c-0.2-0.2-0.5-0.4-0.4-0.8c0-0.2,0.2-0.5,0.4-0.6c0.2-0.2,0.6-0.3,1,0c0.3,0.2,0.8,0.8,1.3,0.9
		c0.5,0.1,1-0.2,1.1-0.8c0.1-0.5,0-1.2-0.3-2.2c-0.1-0.6-0.2-1.2-0.1-1.6c0.3-1.3,1.5-2.4,4-2.7c0.6-0.1,1-0.1,1.4,0
		C240.1,131.4,240.3,131.5,240.4,131.7z"/>
	<path class="st2" d="M243.9,135c0,0.1,0.1,0.1,0.2,0.1c0.2-0.1,0.3-0.1,0.5,0c0.5,0.4,0.3,0.6,0.2,0.8c-0.7,1-1.4,2.2-1.6,3.4
		c-0.1,0.7,0,1,0.3,1.1c0.5,0.1,2-0.8,3.6-2.3c0.3-0.2,0.4-0.1,0.5,0.1c0.1,0.2-0.1,0.5-0.4,0.9c-1.2,1.5-3.5,3-4.7,2.7
		c-0.7-0.2-1.1-0.9-1-1.7c0-0.3,0.1-0.5,0.1-0.7c0-0.2,0-0.2-0.2-0.1c-0.3,0.2-1.5,0.9-2.2,1.2c-0.6,0.3-1.1,0.4-1.5,0.3
		c-0.2,0-0.9-0.6-0.8-1.4c0.1-0.4,0.3-1,1.2-2.1c0.7-0.9,1.7-1.7,2.7-2.3c1.3-0.7,2.1-0.6,2.3-0.6
		C243.6,134.5,243.8,134.8,243.9,135z M241.1,136.5c-0.8,0.6-1.6,1.6-1.8,2.1c-0.1,0.2-0.1,0.5,0,0.6s0.5-0.1,0.8-0.3
		c0.4-0.2,0.7-0.5,1.5-1.1c0.3-0.3,0.8-0.7,0.9-0.9c0.2-0.2,0.3-0.4,0.3-0.6c0-0.2-0.1-0.5-0.4-0.5
		C242.1,135.8,241.8,135.9,241.1,136.5z"/>
	<path class="st2" d="M252.9,137.4c0,0.2,0,0.3,0.1,0.5c0.2,0.2,0.7,0.4,1.3,0.6c0.7,0.1,1.2,0.2,1.5,0.1c0.4-0.1,0.3,0.3,0.1,0.4
		c-0.5,0.3-1.4,0.6-2.4,0.4c-0.5-0.1-0.8-0.2-0.9-0.3c-0.1-0.1-0.2,0-0.3,0.1c-2,2.3-3.5,2.9-4.8,3.2c-0.6,0.1-1,0.1-1.3,0.1
		c-0.3-0.1-0.9-0.6-0.6-1.8c0.1-0.3,0.4-1.2,1.3-2.5c0.1-0.2,0.1-0.2,0.1-0.3c-0.1-0.1-0.1-0.2,0-0.5c0.3-0.7,1.2-1.8,2-1.6
		c0.4,0.1,0.6,0.7,0.5,1.3c-0.1,0.5-0.2,0.7-0.7,1.3c-0.5,0.5-0.8,1.1-1,1.6c-0.3,0.6-0.3,1-0.1,1c0.1,0,0.3,0,0.6-0.2
		c1-0.5,2-1.3,2.7-2.4c0.1-0.1,0.1-0.2,0-0.4c-0.1-0.2-0.2-0.5-0.1-0.8c0.1-0.6,1.1-1,1.6-0.9C252.8,136.5,252.9,137.1,252.9,137.4z
		"/>
	<path class="st2" d="M254.9,138.7c0.5-0.5,1.8-1.4,2.6-1.2c0.4,0.1,0.5,0.3,0.6,0.5c0,0.1,0.1,0.2,0.3,0.2c0.7,0.2,1,0.7,0.9,1.5
		c-0.2,0.7-0.6,1.2-1.1,1.5c-0.5,0.3-1.3,0.7-2.4,0.4c-0.2,0-0.4-0.2-0.6-0.3c-0.1-0.1-0.2-0.1-0.3,0c-0.1,0.2-0.2,0.3-0.3,0.6
		c-0.1,0.4,0.1,0.8,0.7,0.9c1.2,0.3,3.1,0,5.6-1.5c0.2-0.2,0.4-0.1,0.5,0c0.1,0.2-0.1,0.5-0.5,0.8c-1.7,1.4-4.5,2.5-6.8,2
		c-0.9-0.2-1.6-1.1-1.3-2.3C253,141.1,253.8,139.8,254.9,138.7z M257.7,139.5c0.1-0.3-0.1-0.5-0.4-0.5c-0.4-0.1-1.3,0.7-1.6,1.3
		c-0.1,0.2-0.1,0.3,0.1,0.3C256.5,140.7,257.6,140,257.7,139.5z"/>
	<path class="st2" d="M269.3,143.1c0.2-0.1,0.3-0.1,0.4,0.1c0.1,0.3-0.2,0.7-0.5,1c-1.9,1.6-3.3,2-4,2.2c-0.6,0.1-1.2,0.2-1.5,0.1
		c-0.6-0.1-0.8-0.9-0.3-2c0.1-0.3,0.2-0.5,0.3-0.7c0.1-0.2,0-0.3-0.2-0.2c-0.4,0.3-2,1.2-3.3,1.7c-0.5,0.2-0.8,0.2-1.1,0.1
		c-0.4-0.1-0.7-0.8-0.5-1.4c0.1-0.3,0.2-0.8,1.1-2.1c0.8-1.3,1.7-2.3,2-2.7c0.3-0.2,0.6-0.3,0.8-0.3c0.5,0.1,1,0.7,0.9,1.1
		c-0.1,0.3-0.6,0.8-0.8,1c-0.3,0.2-0.5,0.3-0.7,0.5c-0.2,0.3-0.5,0.6-0.9,1.3c-0.3,0.6-0.3,0.8-0.1,0.9c0.2,0,0.9-0.3,2-1.1
		c1.2-0.9,2.3-2.1,2.8-2.5c0.4-0.4,0.7-0.5,0.9-0.4c0.5,0.1,0.9,0.8,0.5,1.3c-0.1,0.2-0.3,0.3-0.6,0.7c-0.6,0.7-1.3,1.9-1.6,2.7
		c-0.1,0.4-0.2,0.7,0.1,0.8C265.8,145.3,267.8,144.1,269.3,143.1z"/>
	<path class="st2" d="M274.7,142.4c-0.1,0.3-0.4,0.6-0.7,0.8c-0.3,0.2-0.5,0.2-0.7,0.1c-0.1-0.1-0.3-0.2-0.4-0.3
		c-0.2-0.1-0.6,0.1-1.3,0.7c-1.3,0.9-2.7,2.6-3.1,3.1c-0.3,0.5-0.7,0.6-1,0.6c-0.3-0.1-0.5-0.3-0.7-0.6c-0.2-0.3-0.2-0.5,0.1-0.9
		c0.8-1.1,1.3-2.7,1.7-3.7c0.3-0.8,0.5-1.1,1-1.3c0.3-0.2,0.7-0.3,1-0.2c0.4,0.1,0.6,0.6,0.5,0.9c0,0.2-0.3,0.4-0.4,0.6
		c-0.3,0.3-0.8,1.1-1,1.7c-0.1,0.2,0,0.2,0.2,0.1c0.3-0.3,1.2-1.2,2.1-1.7c0.7-0.5,1.5-1,2.3-0.8C274.6,141.6,274.9,142,274.7,142.4
		z"/>
	<path class="st2" d="M279.1,143c0.2,0.2,0.2,0.4,0.2,0.7c-0.1,0.4-0.4,0.5-0.7,0.4c-1.2-0.3-2.7-0.1-2.8,0.5
		c-0.1,0.4,0.1,0.9,0.3,1.4c0.3,0.7,0.5,1.3,0.3,1.8c-0.1,0.3-0.4,0.7-0.7,0.9c-0.3,0.2-1.1,0.4-1.6,0.5c-0.3,0-0.6,0-0.8,0
		c-0.5-0.1-1.2-0.6-1.2-1c0-0.1,0.1-0.3,0.3-0.4c0.3-0.2,0.6-0.3,0.8-0.4c0.2-0.1,0.3,0,0.5,0.2c0.2,0.1,0.3,0.2,0.6,0.3
		c0.3,0.1,0.4-0.1,0.5-0.2c0-0.2,0-0.6-0.2-1c-0.1-0.3-0.3-0.9-0.4-1.2c0-0.3-0.1-0.6,0-0.9c0.2-0.7,1-1.3,1.6-1.6
		c0.7-0.4,1.8-0.5,2.5-0.3C278.7,142.6,278.9,142.8,279.1,143z"/>
</g>
</svg>
